<?xml version="1.0"?><svg xmlns="http://www.w3.org/2000/svg"  viewBox="0 0 50 50" width="50px" height="50px">    <path d="M 13 0 C 11.346 0 10 1.346 10 3 L 10 24 L 30.529297 24 L 21.347656 14.816406 C 20.956656 14.425406 20.956656 13.793344 21.347656 13.402344 C 21.738656 13.011344 22.370719 13.011344 22.761719 13.402344 L 34.357422 25 L 22.759766 36.597656 C 22.564766 36.792656 22.308734 36.890625 22.052734 36.890625 C 21.796734 36.890625 21.540703 36.792656 21.345703 36.597656 C 20.954703 36.206656 20.954703 35.574594 21.345703 35.183594 L 30.529297 26 L 10 26 L 10 47 C 10 48.654 11.346 50 13 50 L 47 50 C 48.654 50 50 48.654 50 47 L 50 3 C 50 1.346 48.654 0 47 0 L 13 0 z M 10 26 L 10 24 L 1 24 C 0.448 24 0 24.448 0 25 C 0 25.552 0.448 26 1 26 L 10 26 z"/></svg>