<svg xmlns="http://www.w3.org/2000/svg"  viewBox="0 0 50 50" width="50px" height="50px"><path d="M 13.664062 4 C 8.9265182 4 5.0644531 7.8620649 5.0644531 12.599609 L 5.0644531 30.599609 L 5.0644531 31.400391 L 5.0644531 38.400391 C 5.0644531 43.137935 8.9265182 47 13.664062 47 L 36.464844 47 C 41.202389 47 45.064453 43.137935 45.064453 38.400391 L 45.064453 31.400391 L 45.064453 30.599609 L 45.064453 12.599609 C 45.064453 7.8620649 41.202389 4 36.464844 4 L 13.664062 4 z M 13.664062 6 L 36.464844 6 C 40.121299 6 43.064453 8.9431546 43.064453 12.599609 L 43.064453 30.599609 L 43.064453 31.400391 C 43.064453 35.056846 40.121299 38 36.464844 38 L 13.664062 38 C 10.007608 38 7.0644531 35.056846 7.0644531 31.400391 L 7.0644531 30.599609 L 7.0644531 12.599609 C 7.0644531 8.9431546 10.007607 6 13.664062 6 z M 24.064453 14 L 24.064453 21 L 17.064453 21 L 17.064453 23 L 24.064453 23 L 24.064453 30 L 26.064453 30 L 26.064453 23 L 33.064453 23 L 33.064453 21 L 26.064453 21 L 26.064453 14 L 24.064453 14 z M 7.0644531 36.902344 C 8.6439163 38.792759 11.017026 40 13.664062 40 L 36.464844 40 C 39.11188 40 41.48499 38.792759 43.064453 36.902344 L 43.064453 38.400391 C 43.064453 42.056846 40.121299 45 36.464844 45 L 13.664062 45 C 10.007608 45 7.0644531 42.056846 7.0644531 38.400391 L 7.0644531 36.902344 z"/></svg>