<svg xmlns="http://www.w3.org/2000/svg" xmlns:xlink="http://www.w3.org/1999/xlink" viewBox="0,0,256,256" width="48px" height="48px" fill-rule="nonzero"><g fill="none" fill-rule="nonzero" stroke="none" stroke-width="1" stroke-linecap="butt" stroke-linejoin="miter" stroke-miterlimit="10" stroke-dasharray="" stroke-dashoffset="0" font-family="none" font-weight="none" font-size="none" text-anchor="none" style="mix-blend-mode: normal"><g transform="scale(5.33333,5.33333)"><circle cx="24" cy="24" r="20" fill="#ff2e2e"></circle><path d="M29,12.003v4.519c2.41,1.617 4,4.365 4,7.478c0,4.962 -4.038,9 -9,9c-4.962,0 -9,-4.038 -9,-9c0,-3.113 1.59,-5.861 4,-7.478v-4.519c-4.693,1.963 -8,6.6 -8,11.997c0,7.168 5.832,13 13,13c7.168,0 13,-5.832 13,-13c0,-5.397 -3.307,-10.034 -8,-11.997z" fill="#fac8d5"></path><rect x="22" y="9" width="4" height="15" fill="#fac8d5"></rect></g></g></svg>