<svg xmlns="http://www.w3.org/2000/svg"  viewBox="0 0 64 64" width="64px" height="64px"><path d="M44,3H20c-1.65,0-3,1.35-3,3V58c0,1.65,1.35,3,3,3h24c1.65,0,3-1.35,3-3V6c0-1.65-1.35-3-3-3Zm1,55c0,.55-.45,1-1,1H20c-.55,0-1-.45-1-1V6c0-.55,.45-1,1-1h24c.55,0,1,.45,1,1V58Zm-23-17c0,5.51,4.49,10,10,10s10-4.49,10-10-4.49-10-10-10-10,4.49-10,10Zm14.9-6.31l-1.43,1.43c-.98-.7-2.18-1.11-3.47-1.11s-2.49,.42-3.47,1.11l-1.43-1.43c1.36-1.05,3.05-1.69,4.9-1.69s3.54,.63,4.9,1.69Zm-8.9,6.31c0-2.21,1.79-4,4-4s4,1.79,4,4-1.79,4-4,4-4-1.79-4-4Zm-2.31-4.9l1.43,1.43c-.7,.98-1.11,2.18-1.11,3.47s.42,2.49,1.11,3.47l-1.43,1.43c-1.05-1.36-1.69-3.05-1.69-4.9s.63-3.54,1.69-4.9Zm1.41,11.21l1.43-1.43c.98,.7,2.18,1.11,3.47,1.11s2.49-.42,3.47-1.11l1.43,1.43c-1.36,1.05-3.05,1.69-4.9,1.69s-3.54-.63-4.9-1.69Zm11.21-1.41l-1.43-1.43c.7-.98,1.11-2.18,1.11-3.47s-.42-2.49-1.11-3.47l1.43-1.43c1.05,1.36,1.69,3.05,1.69,4.9s-.63,3.54-1.69,4.9ZM21,17c0-.55,.45-1,1-1h4c.55,0,1,.45,1,1s-.45,1-1,1h-4c-.55,0-1-.45-1-1Zm8,0c0-.55,.45-1,1-1h4c.55,0,1,.45,1,1s-.45,1-1,1h-4c-.55,0-1-.45-1-1Zm14,0c0,.55-.45,1-1,1h-4c-.55,0-1-.45-1-1s.45-1,1-1h4c.55,0,1,.45,1,1Zm-22,5c0-.55,.45-1,1-1h4c.55,0,1,.45,1,1s-.45,1-1,1h-4c-.55,0-1-.45-1-1Zm8,0c0-.55,.45-1,1-1h4c.55,0,1,.45,1,1s-.45,1-1,1h-4c-.55,0-1-.45-1-1Zm14,0c0,.55-.45,1-1,1h-4c-.55,0-1-.45-1-1s.45-1,1-1h4c.55,0,1,.45,1,1Zm-22,5c0-.55,.45-1,1-1h4c.55,0,1,.45,1,1s-.45,1-1,1h-4c-.55,0-1-.45-1-1Zm8,0c0-.55,.45-1,1-1h4c.55,0,1,.45,1,1s-.45,1-1,1h-4c-.55,0-1-.45-1-1Zm14,0c0,.55-.45,1-1,1h-4c-.55,0-1-.45-1-1s.45-1,1-1h4c.55,0,1,.45,1,1Zm-16,28c0,.55-.45,1-1,1h-4c-.55,0-1-.45-1-1s.45-1,1-1h4c.55,0,1,.45,1,1Zm8,0c0,.55-.45,1-1,1h-4c-.55,0-1-.45-1-1s.45-1,1-1h4c.55,0,1,.45,1,1Zm8,0c0,.55-.45,1-1,1h-4c-.55,0-1-.45-1-1s.45-1,1-1h4c.55,0,1,.45,1,1ZM24,13c1.65,0,3-1.35,3-3s-1.35-3-3-3-3,1.35-3,3,1.35,3,3,3Zm0-4c.55,0,1,.45,1,1s-.45,1-1,1-1-.45-1-1,.45-1,1-1Zm16-2c-1.65,0-3,1.35-3,3s1.35,3,3,3,3-1.35,3-3-1.35-3-3-3Zm0,4c-.55,0-1-.45-1-1s.45-1,1-1,1,.45,1,1-.45,1-1,1Z"/></svg>