<svg xmlns="http://www.w3.org/2000/svg"  viewBox="0 0 68 68" width="53px" height="53px"><path fill="#76bdff" d="M36.3281403,4.3225751c0,1.291028-1.0414467,2.3324761-2.3238602,2.3324761 c-1.2910271,0-2.3324223-1.0414481-2.3324223-2.3324761c0-1.2824125,1.0413952-2.3238606,2.3324223-2.3238606 C35.2866936,1.9987144,36.3281403,3.0401626,36.3281403,4.3225751z"/><path fill="#342c37" d="M52.0847511,9.7747755v50.7914009c0,3.0066605-2.4413109,5.435112-5.4478951,5.435112H21.3631439 c-3.0065842,0-5.4478931-2.4284515-5.4478931-5.435112V9.7747755c0-3.0066614,2.441309-5.4478927,5.4478931-5.4478927h25.2737122 C49.6434402,4.3268828,52.0847511,6.7681141,52.0847511,9.7747755z"/><path fill="#e9edf4" d="M46.7168884,18.6702061h-3.6369476c-1.0724564,0-1.941803,0.869379-1.941803,1.9418373 c0,1.0724258,0.8693466,1.9418373,1.941803,1.9418373h3.6369476c1.0724602,0,1.9418068-0.8694115,1.9418068-1.9418373 C48.6586952,19.5395851,47.7893486,18.6702061,46.7168884,18.6702061z"/><path fill="#e9edf4" d="M35.820694,18.6702061h-3.6369476c-1.0724583,0-1.9418049,0.869379-1.9418049,1.9418373 c0,1.0724258,0.8693466,1.9418373,1.9418049,1.9418373h3.6369476c1.0724564,0,1.941803-0.8694115,1.941803-1.9418373 C37.7624969,19.5395851,36.8931503,18.6702061,35.820694,18.6702061z"/><path fill="#e9edf4" d="M24.9244976,18.6702061h-3.6369457c-1.0724583,0-1.9418049,0.869379-1.9418049,1.9418373 c0,1.0724258,0.8693466,1.9418373,1.9418049,1.9418373h3.6369457c1.0724583,0,1.9418068-0.8694115,1.9418068-1.9418373 C26.8663044,19.5395851,25.9969559,18.6702061,24.9244976,18.6702061z"/><path fill="#e9edf4" d="M46.7168884,25.947403h-3.6369476c-1.0724564,0-1.941803,0.869379-1.941803,1.9418373 c0,1.0724258,0.8693466,1.9418373,1.941803,1.9418373h3.6369476c1.0724602,0,1.9418068-0.8694115,1.9418068-1.9418373 C48.6586952,26.816782,47.7893486,25.947403,46.7168884,25.947403z"/><path fill="#e9edf4" d="M35.820694,25.947403h-3.6369476c-1.0724583,0-1.9418049,0.869379-1.9418049,1.9418373 c0,1.0724258,0.8693466,1.9418373,1.9418049,1.9418373h3.6369476c1.0724564,0,1.941803-0.8694115,1.941803-1.9418373 C37.7624969,26.816782,36.8931503,25.947403,35.820694,25.947403z"/><path fill="#e9edf4" d="M24.9244976,25.947403h-3.6369457c-1.0724583,0-1.9418049,0.869379-1.9418049,1.9418373 c0,1.0724258,0.8693466,1.9418373,1.9418049,1.9418373h3.6369457c1.0724583,0,1.9418068-0.8694115,1.9418068-1.9418373 C26.8663044,26.816782,25.9969559,25.947403,24.9244976,25.947403z"/><g><path fill="#e9edf4" d="M46.7168884,33.2245979h-3.6369476c-1.0724564,0-1.941803,0.869381-1.941803,1.9418373 c0,1.0724258,0.8693466,1.9418373,1.941803,1.9418373h3.6369476c1.0724602,0,1.9418068-0.8694115,1.9418068-1.9418373 C48.6586952,34.0939789,47.7893486,33.2245979,46.7168884,33.2245979z"/><path fill="#e9edf4" d="M35.820694,33.2245979h-3.6369476c-1.0724583,0-1.9418049,0.869381-1.9418049,1.9418373 c0,1.0724258,0.8693466,1.9418373,1.9418049,1.9418373h3.6369476c1.0724564,0,1.941803-0.8694115,1.941803-1.9418373 C37.7624969,34.0939789,36.8931503,33.2245979,35.820694,33.2245979z"/><path fill="#e9edf4" d="M24.9244976,33.2245979h-3.6369457c-1.0724583,0-1.9418049,0.869381-1.9418049,1.9418373 c0,1.0724258,0.8693466,1.9418373,1.9418049,1.9418373h3.6369457c1.0724583,0,1.9418068-0.8694115,1.9418068-1.9418373 C26.8663044,34.0939789,25.9969559,33.2245979,24.9244976,33.2245979z"/></g><g><path fill="#e9edf4" d="M33.4214249,47.5063248c-2.0364914,0-3.6940403,1.6512756-3.6940403,3.6814919 c0,2.037117,1.6575489,3.6940384,3.6940403,3.6940384c2.0302162,0,3.6814919-1.6569214,3.6814919-3.6940384 C37.1029167,49.1576004,35.4516411,47.5063248,33.4214249,47.5063248z"/><path fill="#e9edf4" d="M27.8464851,48.236599c0.1204586-0.2001343,0.1003819-0.4253654-0.05019-0.5759392l-1.8056126-1.804985 c-0.0865803-0.087204-0.2108021-0.1367683-0.3362789-0.1367683c-0.0150566,0-0.0301151,0.0006256-0.0451717,0.0018806 c-0.1279869,0.0119209-0.2371521,0.0740318-0.3049088,0.1744118c-2.2485466,3.167038-2.2535648,7.423214-0.0125484,10.5933876 c0.0740318,0.1035194,0.1882153,0.1668854,0.3212223,0.1775513c0.1518269,0.0119209,0.2823219-0.0395241,0.3776855-0.1361427 l1.8056126-1.8043594c0.1505718-0.1499443,0.1706486-0.3758011,0.05019-0.5753098 C26.7673836,52.3258896,26.7673836,50.0604057,27.8464851,48.236599z"/><path fill="#e9edf4" d="M36.9423065,56.8072968c-0.1405373-0.1424141-0.3726692-0.1624908-0.5621376-0.0508156 c-1.8244362,1.0929031-4.0905457,1.0922775-5.9149818,0.0006256c-0.0815601-0.0489349-0.1706486-0.0734024-0.258482-0.0734024 c-0.1166935,0-0.2308769,0.0432892-0.3199654,0.1267319l-1.8005943,1.8131409 c-0.10289,0.0978699-0.1530819,0.232132-0.1405334,0.3707848c0.0100384,0.1304932,0.0752869,0.2459335,0.1794319,0.3162003 c3.1695461,2.2403908,7.4257221,2.2410164,10.5927601,0.0018845c0.0991249-0.0696411,0.1618652-0.1850815,0.1731567-0.3162041 c0.0112953-0.1411591-0.0363884-0.2766762-0.131752-0.3720398L36.9423065,56.8072968z"/><path fill="#e9edf4" d="M29.8905029,45.566452c0.1530819,0.1537094,0.3827057,0.1775475,0.5746841,0.0633659 c0.9122181-0.5464516,1.9348526-0.8193665,2.9574928-0.8193665c1.0226364,0,2.0452728,0.2729149,2.957489,0.818737 c0.1869621,0.1135559,0.4203491,0.0909729,0.5633926-0.05019l1.8031006-1.8162766 c0.10289-0.0978737,0.1530838-0.232132,0.1405334-0.3714142c-0.0100365-0.1304932-0.0752831-0.2459335-0.1794319-0.3162003 c-3.1582527-2.2416458-7.4094086-2.2422714-10.5802097-0.0018806c-0.1028919,0.0702667-0.1643753,0.1781769-0.1769238,0.3067894 c-0.0138016,0.1411629,0.0376434,0.2842064,0.1355152,0.3820763L29.8905029,45.566452z"/><path fill="#e9edf4" d="M41.5410347,45.8977089c-0.0727768-0.101635-0.183197-0.1650009-0.312439-0.1769218 c-0.0150566-0.001255-0.0301132-0.0025101-0.0451698-0.0025101c-0.1267319,0-0.2497025,0.0501938-0.3450623,0.1399078 l-1.8005943,1.802475c-0.1442986,0.1524544-0.1656303,0.3845863-0.051445,0.5746841 c1.0916481,1.8244362,1.0916481,4.0911751,0,5.9149818c-0.1141853,0.1907234-0.0928535,0.4228554,0.0539551,0.5784492 l1.8018494,1.8012199c0.0978699,0.0941086,0.232132,0.1411629,0.3764305,0.131752 c0.1330032-0.0112953,0.2471886-0.0734062,0.3249817-0.1750412 C43.779541,53.3196678,43.779541,49.0647469,41.5410347,45.8977089z"/></g><g><path fill="#fe4c40" d="M26.4836102,12.7235584c0,1.8624067-1.5085697,3.3709774-3.3813915,3.3709774 c-1.8623428,0-3.3709774-1.5085707-3.3709774-3.3709774c0-1.8623438,1.5086346-3.3813915,3.3709774-3.3813915 C24.9750404,9.3421669,26.4836102,10.8612146,26.4836102,12.7235584z"/></g><g><path fill="#ffc90d" d="M48.2701149,12.7235584c0,1.8624067-1.5085678,3.3709774-3.3709755,3.3709774 c-1.8622818,0-3.3813286-1.5085707-3.3813286-3.3709774c0-1.8623438,1.5190468-3.3813915,3.3813286-3.3813915 C46.7615471,9.3421669,48.2701149,10.8612146,48.2701149,12.7235584z"/></g></svg>