<?xml version="1.0" encoding="UTF-8" standalone="no"?>
<svg
   viewBox="0 0 512 512"
   width="64px"
   height="64px"
   version="1.1"
   id="svg96"
   sodipodi:docname="icons8-tv (1).svg"
   inkscape:version="1.2.2 (1:1.2.2+202305151914+b0a8486541)"
   xmlns:inkscape="http://www.inkscape.org/namespaces/inkscape"
   xmlns:sodipodi="http://sodipodi.sourceforge.net/DTD/sodipodi-0.dtd"
   xmlns="http://www.w3.org/2000/svg"
   xmlns:svg="http://www.w3.org/2000/svg">
  <defs
     id="defs100" />
  <sodipodi:namedview
     id="namedview98"
     pagecolor="#ffffff"
     bordercolor="#000000"
     borderopacity="0.25"
     inkscape:showpageshadow="2"
     inkscape:pageopacity="0.0"
     inkscape:pagecheckerboard="0"
     inkscape:deskcolor="#d1d1d1"
     showgrid="false"
     inkscape:zoom="13.6875"
     inkscape:cx="32"
     inkscape:cy="32.694064"
     inkscape:window-width="1920"
     inkscape:window-height="1031"
     inkscape:window-x="0"
     inkscape:window-y="1129"
     inkscape:window-maximized="1"
     inkscape:current-layer="g94" />
  <path
     fill="#767c93"
     d="M450.5,435.58a28.21,28.21,0,0,1-27.89,28.32H44.35A28.19,28.19,0,0,1,16.5,435.58V139.1c0-15.95,12.93-29.2,27.85-29.2H422.61c14.93,0,27.89,13.25,27.89,29.2Z"
     id="path2" />
  <path
     fill="#767c93"
     d="M426.16,464.45l-5.57,19.4s-4.29,12-22.22,12H68.15c-17.93,0-22.23-12-22.23-12l-5.57-19.27"
     id="path4" />
  <path
     fill="#3f456b"
     d="M16.88,431.83s2.26,18.07,30.78,18.07H420.81s14.69.84,14.69-16.73V142s.18-24.07-18.51-28.88c0,0,33.51-21.82,33.51,66.9V435.58s-1.32,28.32-29.69,28.32H46.15S16.88,465.33,16.88,431.83Z"
     opacity=".3"
     id="path6" />
  <path
     fill="#fff"
     d="M450.53,142s-2.25-18.07-30.77-18.07H46.6s-15.1-.12-15.1,17.44V432.53S31.32,456.59,50,461.41c0,0-33.51,11.07-33.51-36.1V138.94s1.73-29,30.1-29H421.26S450.53,108.48,450.53,142Z"
     opacity=".2"
     id="path8" />
  <path
     fill="#3f456b"
     d="M409.94,410.13a45.83,45.83,0,0,1-7.82,6.2c-14.58,9.12-33.38,11.17-50.17,12.58-33.73,2.82-67.52,4.83-101.37,5.31q-25,.36-49.93-.91c-15.53-.77-31-2-46.54-3.27s-31.1-2.76-46.64-4.2c-1.87-.18-3.75-.33-5.63-.53C82,423.26,73.12,412.82,73.12,412.82,65.33,402.24,62.39,395.11,60.94,382c-7.43-67.62-3.49-130.87.61-169.31,2.53-23.72,11.35-30.3,11.35-30.3s7.21-9.48,30.3-11.6c56-5.12,168.7-12.17,283.68-.23,11.42,1.18,19.93,4.62,28.28,12.31,0,0,9,9.06,14,35.39,7.22,38,10.84,85.63.09,152.75C427,384.84,420.34,400,409.94,410.13Z"
     opacity=".3"
     id="path10" />
  <g
     data-name="&lt;编组&gt;"
     id="g26">
    <path
       fill="#f5f6f7"
       d="M98,159.5V408l-1.65,1.84C67.59,401.59,50.64,380.57,46.94,347c-5-45.17-4.16-90,.7-135.16,1.58-14.64,6.44-32.27,19.06-41.35,9.13-6.57,19.56-10.78,30.63-13.53Z"
       id="path12" />
    <path
       fill="#8ccec3"
       d="M315.43,151.41v265c-19.36,1.27-37.42,2.07-54.32,2.51l-.05-1.71v-267l0-1.11q12.14.27,24.23.76Q300.4,150.47,315.43,151.41Z"
       id="path14" />
    <path
       fill="#e94e65"
       d="M97.33,157c17.61-4.36,36.82-5,54.94-5.65l0,1.37V414.79l-.13,1.73c-14-1-26.85-2.24-38.72-3.48a100.45,100.45,0,0,1-17.16-3.24L98,408V159.5Z"
       id="path16" />
    <path
       fill="#f29344"
       d="M206.65,419.09c-20-.43-38-1.37-54.46-2.57l.13-1.73V152.67l0-1.37c6.11-.21,12.09-.42,17.84-.77q18.24-1.09,36.55-1.48l0,1.17v267Z"
       id="path18" />
    <path
       fill="#95d5ef"
       d="M315.43,151.41q24,1.51,48,4,3.27.35,6.36,1v255a59.6,59.6,0,0,1-8.14,1.36q-24.29,2.31-46.23,3.73Z"
       id="path20" />
    <path
       fill="#f9c364"
       d="M206.66,149.05c18.14-.42,36.3-.36,54.43.06l0,1.11v267l.05,1.71c-19.66.5-37.75.5-54.46.14l0-1.85v-267Z"
       id="path22" />
    <path
       fill="#b5b5da"
       d="M414.77,205.12c6.67,34,8.25,71.33,6.65,105.92-.92,19.89-3.08,41-8.19,60.34A51.82,51.82,0,0,1,401,393.14a63.06,63.06,0,0,1-31.21,18.21v-255C394.42,161.49,410,180.68,414.77,205.12Z"
       id="path24" />
  </g>
  <polygon
     fill="#3f456b"
     points="417.22 488.95 43.63 475.79 41.48 463.9 424.17 463.9 417.22 488.95"
     opacity=".3"
     id="polygon28" />
  <path
     fill="#dae1ea"
     d="M260.54,109.6s0-22.88-25.43-22.88-23.9,22.88-23.9,22.88"
     id="path30" />
  <path
     fill="#3f456b"
     d="M231.53,86.16s14.26,7.74,12.73,22.74h17.8S259,82.74,231.53,86.16Z"
     opacity=".2"
     id="path32" />
  <path
     fill="#3f456b"
     d="M342.62,399.46c-8.56,1.1-17.22,1.59-25.31,2.35-25.5,2.4-51.05,2.19-76.6,2.19-45.62.14-80.74-1.73-126.21-4.95-19.08-1.58-47-9.15-57.74-26.16-1.64-2.61-4.85-7.36-5-10.67,0,0,10.44,43.54,49.54,48.86s192.43,10.36,268.08.73c0,0,37.23-2.24,45-41.71S431.11,154.82,384.12,164c0,0,13.66,3.34,17.72,34.15s10.22,79,1.66,145.78c-2.2,17.14-9,34.05-23,44C370.59,394.93,355.07,397.84,342.62,399.46Z"
     opacity=".2"
     id="path34" />
  <path
     fill="#3f456b"
     d="M143.5,500.9a5,5,0,0,1-5-5v-15a5,5,0,0,1,10,0v15A5,5,0,0,1,143.5,500.9Z"
     opacity=".5"
     id="path36" />
  <path
     fill="#3f456b"
     d="M163.5,500.9a5,5,0,0,1-5-5v-15a5,5,0,0,1,10,0v15A5,5,0,0,1,163.5,500.9Z"
     opacity=".5"
     id="path38" />
  <path
     fill="#3f456b"
     d="M183.5,500.9a5,5,0,0,1-5-5v-15a5,5,0,0,1,10,0v15A5,5,0,0,1,183.5,500.9Z"
     opacity=".5"
     id="path40" />
  <path
     fill="#3f456b"
     d="M203.5,500.9a5,5,0,0,1-5-5v-15a5,5,0,0,1,10,0v15A5,5,0,0,1,203.5,500.9Z"
     opacity=".5"
     id="path42" />
  <path
     fill="#3f456b"
     d="M223.5,500.9a5,5,0,0,1-5-5v-15a5,5,0,0,1,10,0v15A5,5,0,0,1,223.5,500.9Z"
     opacity=".5"
     id="path44" />
  <path
     fill="#3f456b"
     d="M242.5,500.9a5,5,0,0,1-5-5v-15a5,5,0,0,1,10,0v15A5,5,0,0,1,242.5,500.9Z"
     opacity=".5"
     id="path46" />
  <path
     fill="#3f456b"
     d="M262.5,500.9a5,5,0,0,1-5-5v-15a5,5,0,0,1,10,0v15A5,5,0,0,1,262.5,500.9Z"
     opacity=".5"
     id="path48" />
  <path
     fill="#3f456b"
     d="M282.5,500.9a5,5,0,0,1-5-5v-15a5,5,0,0,1,10,0v15A5,5,0,0,1,282.5,500.9Z"
     opacity=".5"
     id="path50" />
  <path
     fill="#3f456b"
     d="M302.5,500.9a5,5,0,0,1-5-5v-15a5,5,0,0,1,10,0v15A5,5,0,0,1,302.5,500.9Z"
     opacity=".5"
     id="path52" />
  <path
     fill="#3f456b"
     d="M322.5,500.9a5,5,0,0,1-5-5v-15a5,5,0,0,1,10,0v15A5,5,0,0,1,322.5,500.9Z"
     opacity=".5"
     id="path54" />
  <path
     fill="#b9fcf7"
     d="M405.5,439.9a5,5,0,0,1-5-5v-1a5,5,0,0,1,10,0v1A5,5,0,0,1,405.5,439.9Z"
     id="path56" />
  <path
     fill="#fff"
     d="M122.86,167.41c8.55-1.11,17.22-1.59,25.3-2.35,25.51-2.4,51.05-2.19,76.6-2.19,45.62-.14,80.75,1.72,126.21,4.94,19.09,1.59,47,9.16,57.74,26.17,1.64,2.6,4.85,7.36,5,10.67,0,0-10.43-43.55-49.54-48.86s-192.43-10.36-268.08-.73c0,0-37.23,2.24-45,41.71S34.37,412,81.35,402.9c0,0-13.66-3.34-17.71-34.15S53.42,289.71,62,223c2.2-17.14,9-34.05,23-44C94.89,171.94,110.4,169,122.86,167.41Z"
     opacity=".3"
     id="path58" />
  <g
     data-name="&lt;编组&gt;"
     opacity=".3"
     id="g64">
    <path
       fill="#fff"
       d="M417.38,220.3l-199,199c-34.65-.37-63.64-2.29-88.58-4.61l253.6-253.6c16.77,8.3,27.51,24.5,31.34,44.06C415.75,210.12,416.62,215.19,417.38,220.3Z"
       id="path60" />
    <path
       fill="#fff"
       d="M289.87,150.07,58,381.89c-5.85-9.51-9.59-21.16-11.1-34.9-5-45.17-4.16-90,.7-135.16,1.58-14.64,6.44-32.27,19.06-41.35,28.55-20.57,69.86-17.94,103.41-19.95,38.3-2.29,76.9-2.18,115.21-.66C286.84,149.93,288.35,150,289.87,150.07Z"
       id="path62" />
  </g>
  <g
     id="g94">
    <path
       fill="#3f456b"
       d="M422.61,468.9H44.35C26.24,468.9,11.5,454,11.5,435.58V139.1c0-18.54,15-34.2,32.85-34.2H422.61c17.83,0,32.89,15.66,32.89,34.2V435.58A33.14,33.14,0,0,1,422.61,468.9ZM44.35,114.9C32,114.9,21.5,126,21.5,139.1V435.58A23.11,23.11,0,0,0,44.35,458.9H422.61a23.13,23.13,0,0,0,22.89-23.32V139.1c0-13.12-10.48-24.2-22.89-24.2Z"
       id="path66" />
    <path
       fill="#3f456b"
       d="M398.37,500.9H68.15c-21.22,0-26.71-14.75-26.94-15.37l-.09-.29L35.55,466a5,5,0,1,1,9.61-2.77l5.51,19.06c.38.88,4.13,8.65,17.48,8.65H398.37c13.45,0,17.09-7.71,17.48-8.64l5.51-19.19a5,5,0,0,1,9.61,2.77l-5.57,19.39c0,.1-.06.2-.1.3C425.08,486.15,419.58,500.9,398.37,500.9Z"
       id="path68" />
    <path
       fill="#3f456b"
       d="M230.56,424.38A1089.34,1089.34,0,0,1,113,418c-41.84-4.38-66.38-28.75-71-70.47-4.75-43.21-4.52-87.78.7-136.25,1.58-14.67,6.52-34.37,21.11-44.87C88.65,148.5,122.32,147.33,152,146.3c6.21-.21,12.07-.42,17.78-.76,35.48-2.13,73.33-2.34,115.71-.66,26.93,1.06,53.31,2.93,78.44,5.53,28.88,3,49.71,23.09,55.72,53.75,6.19,31.58,8.52,68.61,6.74,107.11-1.13,24.35-3.86,44.43-8.36,61.39a56.93,56.93,0,0,1-13.38,23.87h0a67.35,67.35,0,0,1-42.55,21.16C310.91,422.56,267.75,424.38,230.56,424.38Zm1.24-270.62c-21.45,0-41.79.59-61.39,1.76-5.83.35-11.76.56-18,.78-28.29,1-60.35,2.09-82.76,18.23-6.4,4.61-14.54,14.91-17,37.83-5.14,47.74-5.37,91.6-.7,134.09,4.08,37,25,57.73,62.08,61.62,57.28,6,131.44,10.66,247.2-.33a58,58,0,0,0,36.15-18h0a46.92,46.92,0,0,0,11.05-19.64c4.32-16.27,6.94-35.66,8-59.29,1.74-37.71-.53-73.92-6.56-104.73-5.12-26.11-22.67-43.2-46.94-45.72-24.92-2.59-51.09-4.43-77.81-5.49C266.53,154.13,248.81,153.76,231.8,153.76Z"
       id="path70" />
    <path
       fill="#3f456b"
       d="M209.18,114.6h-.11a5,5,0,0,1-4.89-5.11c0-.28,1-27.77,30.93-27.77,24.07,0,30.43,18.24,30.43,27.88a5,5,0,1,1-10,0,21.34,21.34,0,0,0-2.72-9.3c-3.3-5.7-9.26-8.58-17.71-8.58-8.63,0-14.74,3-18.17,8.94a21.61,21.61,0,0,0-2.76,9A5,5,0,0,1,209.18,114.6Z"
       id="path72" />
    <path
       fill="#3f456b"
       d="M258.9,99.6A5,5,0,0,1,256,90.51L367.79,11.64a5,5,0,0,1,5.76,8.17L261.78,98.68A5,5,0,0,1,258.9,99.6Z"
       id="path74" />
    <path
       fill="#3f456b"
       d="M210.63,99.6a5,5,0,0,1-2.88-.92L96,19.81a5,5,0,0,1,5.77-8.17L213.52,90.51a5,5,0,0,1-2.89,9.09Z"
       id="path76" />
    <path
       fill="#3f456b"
       d="M382.5,439.9a5,5,0,0,1-5-5v-1a5,5,0,0,1,10,0v1A5,5,0,0,1,382.5,439.9Z"
       id="path80" />
    <path
       fill="#3f456b"
       d="M261.06,422.24a5,5,0,0,1-5-5v-267a5,5,0,1,1,10,0v267A5,5,0,0,1,261.06,422.24Z"
       id="path82" />
    <path
       fill="#3f456b"
       d="M206.69,422.24a5,5,0,0,1-5-5v-267a5,5,0,1,1,10,0v267A5,5,0,0,1,206.69,422.24Z"
       id="path84" />
    <path
       fill="#3f456b"
       d="M152.32,419.79a5,5,0,0,1-5-5V152.67a5,5,0,0,1,10,0V414.79A5,5,0,0,1,152.32,419.79Z"
       id="path86" />
    <path
       fill="#3f456b"
       d="M98,413a5,5,0,0,1-5-5V159.5a5,5,0,0,1,10,0V408A5,5,0,0,1,98,413Z"
       id="path88" />
    <path
       fill="#3f456b"
       d="M314.78,422.24a5,5,0,0,1-5-5V152.67a5,5,0,1,1,10,0V417.24A5,5,0,0,1,314.78,422.24Z"
       id="path90" />
    <path
       fill="#3f456b"
       d="M369.8,415.59a5,5,0,0,1-5-5V156.87a5,5,0,0,1,10,0V410.59A5,5,0,0,1,369.8,415.59Z"
       id="path92" />
  </g>
</svg>
