<svg xmlns="http://www.w3.org/2000/svg"  viewBox="0 0 96 96" width="96px" height="96px" baseProfile="basic"><path fill="#0fd2ff" d="M66.587,63.019c-0.619,0-1.182-0.004-1.682-0.021c-1.009-0.031-1.886-0.558-2.406-1.339	C61.962,62.467,61.043,63,60,63H24c-3.309,0-6-2.691-6-6V32.621c0-5.613,2.883-8.46,8.569-8.46c8.82,0,16.607-0.063,22.864-0.115	c9.442-0.076,16.263-0.132,20.458,0.063c8.064,0.38,8.042,6.513,8.034,8.528c-0.007,1.989,0.004,4.53,0.019,7.786	c0.018,3.92,0.041,8.872,0.041,15.14c0,4.592-3.177,7.444-8.292,7.444l-1.719,0.006C67.486,63.017,67.023,63.019,66.587,63.019z M61.501,29.975c-3.353,0-7.364,0.033-12.02,0.071c-6.268,0.052-14.068,0.115-22.913,0.115c-2.314,0-2.569,0.08-2.569,2.46V57h36	c1.043,0,1.962,0.533,2.5,1.341c0.556-0.836,1.519-1.398,2.594-1.339c0.79,0.024,1.75,0.018,2.848,0.012l1.751-0.006	c2.292,0,2.292-0.701,2.292-1.444c0-6.257-0.023-11.199-0.041-15.112c-0.015-3.277-0.026-5.834-0.019-7.837	c0.008-2.221,0.009-2.402-2.315-2.511C67.587,30.008,64.878,29.975,61.501,29.975z" opacity=".3"/><path fill="#0fd2ff" d="M66.583,62.02c-0.605,0-1.156-0.005-1.646-0.021c-1.104-0.034-1.971-0.958-1.937-2.062	c0.035-1.104,0.95-1.973,2.062-1.937c0.801,0.024,1.774,0.019,2.885,0.013l1.746-0.006c3.292,0,3.292-1.59,3.292-2.444	c0-6.259-0.023-11.203-0.041-15.116c-0.015-3.274-0.026-5.828-0.019-7.829c0.01-2.68-0.31-3.375-3.268-3.514	c-4.058-0.19-10.821-0.135-20.183-0.059c-6.266,0.052-14.064,0.115-22.905,0.115c-2.765,0-3.569,0.454-3.569,3.46V57	c0,0.552,0.449,1,1,1h36c1.104,0,2,0.896,2,2s-0.896,2-2,2H24c-2.757,0-5-2.243-5-5V32.621c0-6.687,4.32-7.46,7.569-7.46	c8.824,0,16.613-0.063,22.872-0.115c9.426-0.077,16.235-0.132,20.403,0.063c6.3,0.296,7.093,4.177,7.081,7.525	c-0.007,1.991,0.004,4.535,0.019,7.795c0.018,3.918,0.041,8.868,0.041,15.135c0,4.035-2.726,6.444-7.292,6.444l-1.724,0.006	C67.481,62.017,67.018,62.02,66.583,62.02z" opacity=".3"/><path fill="#4d4dff" d="M78.4,71H50.5c-1.043,0-1.962-0.532-2.5-1.341C47.462,70.468,46.543,71,45.5,71H17.283	C12.858,71,10,68.178,10,63.811V25.067c0-2.439,0.854-4.52,2.469-6.017c1.487-1.378,3.556-2.137,5.827-2.137	c0.001,0,0.002,0,0.003,0c35.188,0.011,51.566,0.197,56.949,0.258c8.88,0.103,10.581,4.074,10.517,10.901	c-0.031,3.324,0.017,7.489,0.078,12.762C85.913,46.876,86,54.394,86,63.658C86,68.256,83.159,71,78.4,71z M18.296,22.914	c-0.753,0-1.375,0.19-1.748,0.537C16.184,23.788,16,24.332,16,25.067v38.743C16,64.733,16.055,65,17.283,65H45.5	c1.043,0,1.962,0.532,2.5,1.341C48.538,65.532,49.457,65,50.5,65h27.9c1.6,0,1.6-0.258,1.6-1.342c0-9.229-0.087-16.729-0.157-22.753	c-0.062-5.309-0.11-9.502-0.078-12.889c0.043-4.611,0.045-4.792-4.586-4.845c-5.374-0.062-21.728-0.247-56.882-0.258	C18.297,22.914,18.296,22.914,18.296,22.914z" opacity=".3"/><path fill="#4d4dff" d="M78.4,70H50.5c-1.104,0-2-0.896-2-2s0.896-2,2-2h27.9c2.21,0,2.6-0.755,2.6-2.342	c0-9.235-0.087-16.737-0.157-22.765c-0.062-5.303-0.11-9.491-0.078-12.867c0.045-4.872-0.118-5.792-5.574-5.854	c-5.375-0.062-21.733-0.247-56.893-0.258c0,0-0.001,0-0.002,0c-1.021,0-1.86,0.277-2.428,0.804C15.292,23.252,15,24.042,15,25.067	v38.743C15,65.162,15.382,66,17.283,66H45.5c1.104,0,2,0.896,2,2s-0.896,2-2,2H17.283C13.407,70,11,67.628,11,63.811V25.067	c0-2.153,0.743-3.98,2.149-5.283c1.32-1.224,3.1-1.87,5.147-1.87c0.001,0,0.002,0,0.003,0c35.182,0.011,51.557,0.197,56.938,0.258	c8.132,0.094,9.589,3.405,9.528,9.892c-0.031,3.335,0.017,7.505,0.078,12.783C84.913,46.885,85,54.399,85,63.658	C85,67.688,82.595,70,78.4,70z" opacity=".3"/><path fill="#4d4dff" d="M58.75,82h-21.5c-2.944,0-4.31-1.498-4.862-2.392c-1.209-1.957-0.981-4.632,0.679-7.95	c0.74-1.481,2.543-2.081,4.025-1.342c1.482,0.741,2.083,2.543,1.341,4.025c-0.351,0.701-0.556,1.254-0.672,1.658h20.478	c-0.116-0.404-0.321-0.957-0.672-1.658c-0.741-1.482-0.141-3.284,1.341-4.025c1.483-0.738,3.285-0.14,4.025,1.342	c1.66,3.318,1.888,5.993,0.679,7.95C63.06,80.502,61.694,82,58.75,82z M37.626,76.786h0.01H37.626z M59.064,75.976L59.064,75.976z M36.936,75.976L36.936,75.976L36.936,75.976z" opacity=".3"/><path fill="#4d4dff" d="M58.75,81h-21.5c-2.335,0-3.47-1.043-4.011-1.917c-1.015-1.643-0.772-3.989,0.722-6.978	c0.495-0.989,1.697-1.388,2.684-0.895c0.988,0.494,1.388,1.695,0.895,2.684c-0.878,1.757-0.956,2.729-0.905,3.034	C36.723,76.958,36.911,77,37.25,77h21.5c0.339,0,0.527-0.042,0.616-0.071c0.051-0.306-0.026-1.277-0.905-3.034	c-0.494-0.988-0.093-2.189,0.895-2.684c0.986-0.494,2.189-0.095,2.684,0.895c1.494,2.988,1.737,5.335,0.722,6.978	C62.22,79.957,61.085,81,58.75,81z M36.652,77h0.01H36.652z" opacity=".3"/><path fill="#0fd2ff" d="M66.578,61.02c-0.592,0-1.13-0.005-1.609-0.021c-0.552-0.017-0.985-0.479-0.968-1.03	s0.482-1.027,1.031-0.968c0.811,0.024,1.796,0.02,2.921,0.013l1.741-0.006c4.292,0,4.292-2.593,4.292-3.444	c0-6.261-0.023-11.206-0.041-15.121c-0.015-3.271-0.026-5.822-0.019-7.82c0.012-3.045-0.573-4.346-4.221-4.517	c-4.085-0.192-10.86-0.137-20.238-0.06c-6.264,0.052-14.06,0.115-22.896,0.115c-3.096,0-4.569,0.667-4.569,4.46V57	c0,1.103,0.897,2,2,2h36c0.552,0,1,0.447,1,1s-0.448,1-1,1H24c-2.206,0-4-1.794-4-4V32.621c0-5.692,3.321-6.46,6.569-6.46	c8.829,0,16.62-0.063,22.88-0.115c9.41-0.076,16.208-0.134,20.348,0.062c5.406,0.254,6.14,3.285,6.127,6.522	c-0.007,1.994,0.004,4.54,0.019,7.804c0.018,3.917,0.041,8.865,0.041,15.13c0,3.46-2.293,5.444-6.292,5.444l-1.729,0.006	C67.475,61.017,67.012,61.02,66.578,61.02z"/><path fill="#4d4dff" d="M78.4,69H50.5c-0.552,0-1-0.447-1-1s0.448-1,1-1h27.9c2.523,0,3.6-0.999,3.6-3.342	c0-9.241-0.087-16.746-0.157-22.776c-0.062-5.297-0.11-9.48-0.078-12.847c0.051-5.413-0.587-6.795-6.563-6.863	c-5.376-0.062-21.739-0.247-56.904-0.258c0,0-0.001,0-0.002,0c-1.278,0-2.352,0.37-3.107,1.07C14.411,22.705,14,23.771,14,25.067	v38.743C14,65.957,15.074,67,17.283,67H45.5c0.552,0,1,0.447,1,1s-0.448,1-1,1H17.283C13.975,69,12,67.06,12,63.811V25.067	c0-1.868,0.632-3.441,1.829-4.55c1.131-1.049,2.676-1.604,4.467-1.604c0.001,0,0.002,0,0.003,0	c35.176,0.011,51.547,0.196,56.926,0.258c7.424,0.086,8.598,2.688,8.54,8.883c-0.032,3.345,0.017,7.519,0.078,12.804	C83.913,46.894,84,54.405,84,63.658C84,67.103,82.011,69,78.4,69z"/><path fill="#4d4dff" d="M58.75,80h-21.5c-1.505,0-2.568-0.485-3.16-1.443c-0.82-1.327-0.563-3.347,0.766-6.004	c0.247-0.494,0.846-0.693,1.342-0.447c0.494,0.247,0.694,0.848,0.447,1.342c-0.927,1.854-1.254,3.409-0.854,4.059	C35.994,77.834,36.485,78,37.25,78h21.5c0.765,0,1.256-0.166,1.459-0.494c0.401-0.649,0.074-2.204-0.854-4.059	c-0.247-0.494-0.047-1.095,0.447-1.342c0.495-0.246,1.095-0.047,1.342,0.447c1.328,2.657,1.586,4.677,0.766,6.004	C61.318,79.515,60.255,80,58.75,80z"/></svg>