<svg xmlns="http://www.w3.org/2000/svg"  viewBox="0 0 24 24" width="24px" height="24px"><path d="M23.78125,19.9033203h-0.0004883c-1.597168-3.2773438-4.2744141-7.9248047-6.637207-12.0244141	C15.90625,5.7304688,14.737793,3.7021484,13.8930664,2.1611328C13.4946289,1.4335938,12.7866211,1,11.9995117,1	s-1.4951172,0.4335938-1.8935547,1.1611328C9.2617188,3.7021484,8.0942383,5.7285156,6.8579102,7.875	c-2.3632813,4.1015625-5.0410156,8.75-6.6391602,12.0283203C0.0737305,20.2021484,0,20.5175781,0,20.8408203	C0,22.03125,0.9614258,23,2.1435547,23L12,22.9980469L21.8564453,23C23.0385742,23,24,22.03125,24,20.8408203	C24,20.5175781,23.9262695,20.2021484,23.78125,19.9033203z"/></svg>